<svg xmlns="http://www.w3.org/2000/svg" xmlns:xlink="http://www.w3.org/1999/xlink" contentStyleType="text/css" data-diagram-type="CLASS" height="312px" preserveAspectRatio="none" style="width:304px;height:312px;" version="1.1" viewBox="0 0 304 312" width="304px" zoomAndPan="magnify"><defs/><g><!--class CUSTOMER--><g id="elem_CUSTOMER"><rect fill="#FFFFFF" fill-opacity="0.00000" height="48" id="CUSTOMER" style="stroke:#006EAF;stroke-width:0.5;" width="107.1543" x="81.9" y="7"/><ellipse cx="96.9" cy="23" fill="#FFFFFF" fill-opacity="0.00000" rx="11" ry="11" style="stroke:#006EAF;stroke-width:1;"/><path d="M99.3731,29.1431 Q98.7921,29.4419 98.1529,29.5913 Q97.5138,29.7407 96.8082,29.7407 Q94.3014,29.7407 92.9815,28.0889 Q91.6617,26.437 91.6617,23.3159 Q91.6617,20.1865 92.9815,18.5347 Q94.3014,16.8828 96.8082,16.8828 Q97.5138,16.8828 98.1612,17.0322 Q98.8087,17.1816 99.3731,17.4805 L99.3731,20.2031 Q98.7423,19.6221 98.1488,19.3523 Q97.5553,19.0825 96.9244,19.0825 Q95.5797,19.0825 94.8949,20.1492 Q94.2101,21.2158 94.2101,23.3159 Q94.2101,25.4077 94.8949,26.4744 Q95.5797,27.541 96.9244,27.541 Q97.5553,27.541 98.1488,27.2712 Q98.7423,27.0015 99.3731,26.4204 Z " fill="#006EAF"/><text fill="#006EAF" font-family="sans-serif" font-size="14" lengthAdjust="spacing" textLength="75.1543" x="110.9" y="28.291">CUSTOMER</text><line style="stroke:#006EAF;stroke-width:0.5;" x1="82.9" x2="188.0543" y1="39" y2="39"/><line style="stroke:#006EAF;stroke-width:0.5;" x1="82.9" x2="188.0543" y1="47" y2="47"/></g><!--class ORDER--><g id="elem_ORDER"><rect fill="#FFFFFF" fill-opacity="0.00000" height="48" id="ORDER" style="stroke:#006EAF;stroke-width:0.5;" width="78.6553" x="18.15" y="132"/><ellipse cx="33.15" cy="148" fill="#FFFFFF" fill-opacity="0.00000" rx="11" ry="11" style="stroke:#006EAF;stroke-width:1;"/><path d="M35.6231,154.1431 Q35.0421,154.4419 34.4029,154.5913 Q33.7638,154.7407 33.0582,154.7407 Q30.5514,154.7407 29.2315,153.0889 Q27.9117,151.437 27.9117,148.3159 Q27.9117,145.1865 29.2315,143.5347 Q30.5514,141.8828 33.0582,141.8828 Q33.7638,141.8828 34.4112,142.0322 Q35.0587,142.1816 35.6231,142.4805 L35.6231,145.2031 Q34.9923,144.6221 34.3988,144.3523 Q33.8053,144.0825 33.1744,144.0825 Q31.8297,144.0825 31.1449,145.1492 Q30.4601,146.2158 30.4601,148.3159 Q30.4601,150.4077 31.1449,151.4744 Q31.8297,152.541 33.1744,152.541 Q33.8053,152.541 34.3988,152.2712 Q34.9923,152.0015 35.6231,151.4204 Z " fill="#006EAF"/><text fill="#006EAF" font-family="sans-serif" font-size="14" lengthAdjust="spacing" textLength="46.6553" x="47.15" y="153.291">ORDER</text><line style="stroke:#006EAF;stroke-width:0.5;" x1="19.15" x2="95.8053" y1="164" y2="164"/><line style="stroke:#006EAF;stroke-width:0.5;" x1="19.15" x2="95.8053" y1="172" y2="172"/></g><!--class LINE_ITEM--><g id="elem_LINE_ITEM"><rect fill="#FFFFFF" fill-opacity="0.00000" height="48" id="LINE_ITEM" style="stroke:#006EAF;stroke-width:0.5;" width="100.9609" x="7" y="257"/><ellipse cx="22" cy="273" fill="#FFFFFF" fill-opacity="0.00000" rx="11" ry="11" style="stroke:#006EAF;stroke-width:1;"/><path d="M24.4731,279.1431 Q23.8921,279.4419 23.2529,279.5913 Q22.6138,279.7407 21.9082,279.7407 Q19.4014,279.7407 18.0815,278.0889 Q16.7617,276.437 16.7617,273.3159 Q16.7617,270.1865 18.0815,268.5347 Q19.4014,266.8828 21.9082,266.8828 Q22.6138,266.8828 23.2612,267.0322 Q23.9087,267.1816 24.4731,267.4805 L24.4731,270.2031 Q23.8423,269.6221 23.2488,269.3523 Q22.6553,269.0825 22.0244,269.0825 Q20.6797,269.0825 19.9949,270.1492 Q19.3101,271.2158 19.3101,273.3159 Q19.3101,275.4077 19.9949,276.4744 Q20.6797,277.541 22.0244,277.541 Q22.6553,277.541 23.2488,277.2712 Q23.8423,277.0015 24.4731,276.4204 Z " fill="#006EAF"/><text fill="#006EAF" font-family="sans-serif" font-size="14" lengthAdjust="spacing" textLength="68.9609" x="36" y="278.291">LINE_ITEM</text><line style="stroke:#006EAF;stroke-width:0.5;" x1="8" x2="106.9609" y1="289" y2="289"/><line style="stroke:#006EAF;stroke-width:0.5;" x1="8" x2="106.9609" y1="297" y2="297"/></g><!--class DELIVERY_ADDRESS--><g id="elem_DELIVERY_ADDRESS"><rect fill="#FFFFFF" fill-opacity="0.00000" height="48" id="DELIVERY_ADDRESS" style="stroke:#006EAF;stroke-width:0.5;" width="165.041" x="131.96" y="132"/><ellipse cx="146.96" cy="148" fill="#FFFFFF" fill-opacity="0.00000" rx="11" ry="11" style="stroke:#006EAF;stroke-width:1;"/><path d="M149.4331,154.1431 Q148.8521,154.4419 148.2129,154.5913 Q147.5738,154.7407 146.8682,154.7407 Q144.3614,154.7407 143.0415,153.0889 Q141.7217,151.437 141.7217,148.3159 Q141.7217,145.1865 143.0415,143.5347 Q144.3614,141.8828 146.8682,141.8828 Q147.5738,141.8828 148.2212,142.0322 Q148.8687,142.1816 149.4331,142.4805 L149.4331,145.2031 Q148.8023,144.6221 148.2088,144.3523 Q147.6153,144.0825 146.9844,144.0825 Q145.6397,144.0825 144.9549,145.1492 Q144.2701,146.2158 144.2701,148.3159 Q144.2701,150.4077 144.9549,151.4744 Q145.6397,152.541 146.9844,152.541 Q147.6153,152.541 148.2088,152.2712 Q148.8023,152.0015 149.4331,151.4204 Z " fill="#006EAF"/><text fill="#006EAF" font-family="sans-serif" font-size="14" lengthAdjust="spacing" textLength="133.041" x="160.96" y="153.291">DELIVERY_ADDRESS</text><line style="stroke:#006EAF;stroke-width:0.5;" x1="132.96" x2="296.001" y1="164" y2="164"/><line style="stroke:#006EAF;stroke-width:0.5;" x1="132.96" x2="296.001" y1="172" y2="172"/></g><!--link CUSTOMER to ORDER--><g id="link_CUSTOMER_ORDER"><path codeLine="2" d="M116.346,62.1763 C102.466,84.0663 95.7785,94.5981 81.9185,116.4581 " fill="#FFFFFF" fill-opacity="0.00000" id="CUSTOMER-ORDER" style="stroke:#006EAF;stroke-width:1;"/><line style="stroke:#006EAF;stroke-width:1;" x1="115.1099" x2="121.8661" y1="56.6561" y2="60.9401"/><line style="stroke:#006EAF;stroke-width:1;" x1="113.5034" x2="120.2596" y1="59.1897" y2="63.4737"/><line style="stroke:#006EAF;stroke-width:1;" x1="116.346" x2="120.63" y1="62.1763" y2="55.42"/><line style="stroke:#006EAF;stroke-width:1;" x1="76.5638" x2="77.3473" y1="124.9036" y2="134.8728"/><line style="stroke:#006EAF;stroke-width:1;" x1="76.5638" x2="67.2127" y1="124.9036" y2="128.4472"/><line style="stroke:#006EAF;stroke-width:1;" x1="76.5638" x2="72.28" y1="124.9036" y2="131.66"/><ellipse cx="79.7766" cy="119.8363" fill="#FFFFFF" fill-opacity="0.00000" rx="4" ry="4" style="stroke:#006EAF;stroke-width:1;"/><text fill="#006EAF" font-family="sans-serif" font-size="13" lengthAdjust="spacing" textLength="39.6475" x="102.15" y="98.5684">places</text></g><!--link ORDER to LINE_ITEM--><g id="link_ORDER_LINE_ITEM"><path codeLine="3" d="M57.48,188.42 C57.48,210.31 57.48,226.8 57.48,248.66 " fill="#FFFFFF" fill-opacity="0.00000" id="ORDER-LINE_ITEM" style="stroke:#006EAF;stroke-width:1;"/><line style="stroke:#006EAF;stroke-width:1;" x1="53.48" x2="61.48" y1="184.42" y2="184.42"/><line style="stroke:#006EAF;stroke-width:1;" x1="53.48" x2="61.48" y1="187.42" y2="187.42"/><line style="stroke:#006EAF;stroke-width:1;" x1="57.48" x2="57.48" y1="188.42" y2="180.42"/><line style="stroke:#006EAF;stroke-width:1;" x1="57.48" x2="63.48" y1="248.66" y2="256.66"/><line style="stroke:#006EAF;stroke-width:1;" x1="57.48" x2="51.48" y1="248.66" y2="256.66"/><line style="stroke:#006EAF;stroke-width:1;" x1="57.48" x2="57.48" y1="248.66" y2="256.66"/><line style="stroke:#006EAF;stroke-width:1;" x1="61.48" x2="53.48" y1="246.66" y2="246.66"/><text fill="#006EAF" font-family="sans-serif" font-size="13" lengthAdjust="spacing" textLength="53.2061" x="58.48" y="223.5684">contains</text></g><!--link CUSTOMER to DELIVERY_ADDRESS--><g id="link_CUSTOMER_DELIVERY_ADDRESS"><path codeLine="4" d="M154.8512,62.1525 C168.9012,84.0425 181.1267,103.0688 195.1667,124.9288 " fill="#FFFFFF" fill-opacity="0.00000" id="CUSTOMER-DELIVERY_ADDRESS" style="stroke:#006EAF;stroke-width:1;stroke-dasharray:7.0,7.0;"/><line style="stroke:#006EAF;stroke-width:1;" x1="154.8512" x2="145.4806" y1="62.1525" y2="58.6609"/><line style="stroke:#006EAF;stroke-width:1;" x1="154.8512" x2="155.5794" y1="62.1525" y2="52.1791"/><line style="stroke:#006EAF;stroke-width:1;" x1="154.8512" x2="150.53" y1="62.1525" y2="55.42"/><line style="stroke:#006EAF;stroke-width:1;" x1="152.5653" x2="159.2978" y1="65.9963" y2="61.675"/><line style="stroke:#006EAF;stroke-width:1;" x1="195.1667" x2="204.5384" y1="124.9288" y2="128.4176"/><line style="stroke:#006EAF;stroke-width:1;" x1="195.1667" x2="194.4416" y1="124.9288" y2="134.9024"/><line style="stroke:#006EAF;stroke-width:1;" x1="195.1667" x2="199.49" y1="124.9288" y2="131.66"/><line style="stroke:#006EAF;stroke-width:1;" x1="197.4515" x2="190.7203" y1="121.0843" y2="125.4076"/><text fill="#006EAF" font-family="sans-serif" font-size="13" lengthAdjust="spacing" textLength="28.5645" x="180.71" y="98.5684">uses</text></g><!--SRC=[KypCIyufJKbL2CX9p2i9zVNHAowfp4dbSWuD3l7tTGrIgAdHrSslLl0FSW5oh1GASXAJKukv85oGN4srWe-ddskyPuYhBr0-EJ-l934phnXXG6sDdXvGaOkhZsUOQr1alAEBIv1hS31GRMbnQZ40]--></g></svg>